<?xml version="1.0" encoding="UTF-8" standalone="no"?>
<svg
   viewBox="0 0 640 640"
   version="1.1"
   id="svg1"
   sodipodi:docname="broken-cloud-thunder-solid-full.svg"
   inkscape:version="1.4 (86a8ad7, 2024-10-11)"
   xml:space="preserve"
   xmlns:inkscape="http://www.inkscape.org/namespaces/inkscape"
   xmlns:sodipodi="http://sodipodi.sourceforge.net/DTD/sodipodi-0.dtd"
   xmlns:xlink="http://www.w3.org/1999/xlink"
   xmlns="http://www.w3.org/2000/svg"
   xmlns:svg="http://www.w3.org/2000/svg"><defs
     id="defs1"><linearGradient
       id="swatch4"
       inkscape:swatch="solid"><stop
         style="stop-color:#404040;stop-opacity:1;"
         offset="0"
         id="stop4" /></linearGradient><linearGradient
       id="swatch3"
       inkscape:swatch="solid"><stop
         style="stop-color:#404040;stop-opacity:1;"
         offset="0"
         id="stop3" /></linearGradient><linearGradient
       id="swatch2"
       inkscape:swatch="solid"><stop
         style="stop-color:#3d3d3d;stop-opacity:1;"
         offset="0"
         id="stop2" /></linearGradient><linearGradient
       id="swatch1"
       inkscape:swatch="solid"><stop
         style="stop-color:#000000;stop-opacity:1;"
         offset="0"
         id="stop1" /></linearGradient><linearGradient
       inkscape:collect="always"
       xlink:href="#swatch1"
       id="linearGradient1"
       x1="32"
       y1="320"
       x2="608"
       y2="320"
       gradientUnits="userSpaceOnUse" /><linearGradient
       inkscape:collect="always"
       xlink:href="#swatch4"
       id="linearGradient4"
       x1="-125"
       y1="291"
       x2="387"
       y2="291"
       gradientUnits="userSpaceOnUse" /></defs><sodipodi:namedview
     id="namedview1"
     pagecolor="#505050"
     bordercolor="#eeeeee"
     borderopacity="1"
     inkscape:showpageshadow="0"
     inkscape:pageopacity="0"
     inkscape:pagecheckerboard="0"
     inkscape:deskcolor="#d1d1d1"
     inkscape:zoom="0.89161746"
     inkscape:cx="130.66142"
     inkscape:cy="291.0441"
     inkscape:window-width="2560"
     inkscape:window-height="1009"
     inkscape:window-x="-8"
     inkscape:window-y="-8"
     inkscape:window-maximized="1"
     inkscape:current-layer="svg1" /><!--!Font Awesome Free 7.0.0 by @fontawesome - https://fontawesome.com License - https://fontawesome.com/license/free Copyright 2025 Fonticons, Inc.--><path
     d="m 105.90936,291.48994 c 0,68.83517 55.8474,124.68258 124.68257,124.68258 h 263.21878 c 61.21569,0 110.82896,-49.61328 110.82896,-110.82896 0,-44.67792 -26.40847,-83.2083 -64.50592,-100.6985 5.80121,-11.34265 9.09144,-24.24384 9.09144,-37.8377 0,-45.89011 -37.23161,-83.121714 -83.12172,-83.121714 -15.32556,0 -29.61211,4.15608 -41.9072,11.342644 -20.86702,-39.655979 -62.51446,-66.757127 -110.48262,-66.757127 -68.83517,0 -124.68257,55.847402 -124.68257,124.682577 0,6.92681 0.6061,13.76703 1.64511,20.34751 -49.26693,16.62434 -84.76683,63.29372 -84.76683,118.18869 z"
     id="path1"
     style="fill:url(#linearGradient1);stroke-width:0.865851" /><path
     d="m 43,321 c 0,53 43,96 96,96 h 38.6 L 301.7,306 c 12.2,-10.9 28,-17 44.4,-17 44.6,0 76.5,43 63.7,85.7 L 397.1,417 H 459 c 53,0 96,-43 96,-96 0,-53 -43,-96 -96,-96 -0.5,0 -1.1,0 -1.6,0 1.1,-5.2 1.6,-10.5 1.6,-16 0,-44.2 -35.8,-80 -80,-80 -24.3,0 -46.1,10.9 -60.8,28 -18.7,-35.7 -56.1,-60 -99.2,-60 -61.9,0 -112,50.1 -112,112 0,7.1 0.7,14.1 1.9,20.8 C 70.6,242.4 43,278.5 43,321 Z m 160.6,176 h 61.8 l -31.2,104.1 c -3.6,11.9 5.3,23.9 17.8,23.9 4.6,0 9,-1.7 12.4,-4.7 L 405.5,493.9 c 3.5,-3.1 5.5,-7.6 5.5,-12.4 0,-9.2 -7.4,-16.6 -16.6,-16.6 h -61.8 l 31.2,-104.1 c 3.6,-11.9 -5.3,-23.9 -17.8,-23.9 -4.6,0 -9,1.7 -12.4,4.7 L 192.5,468.1 c -3.5,3.1 -5.5,7.6 -5.5,12.4 0,9.2 7.4,16.6 16.6,16.6 z"
     id="path1-7"
     style="fill:url(#linearGradient4)" /></svg>
