<?xml version="1.0" encoding="UTF-8" standalone="no"?>
<svg
   viewBox="0 0 640 640"
   version="1.1"
   id="svg1"
   sodipodi:docname="broken-cloud-rain-solid-full.svg"
   inkscape:version="1.4 (86a8ad7, 2024-10-11)"
   xmlns:inkscape="http://www.inkscape.org/namespaces/inkscape"
   xmlns:sodipodi="http://sodipodi.sourceforge.net/DTD/sodipodi-0.dtd"
   xmlns:xlink="http://www.w3.org/1999/xlink"
   xmlns="http://www.w3.org/2000/svg"
   xmlns:svg="http://www.w3.org/2000/svg">
  <defs
     id="defs1">
    <linearGradient
       id="swatch3"
       inkscape:swatch="solid">
      <stop
         style="stop-color:#404040;stop-opacity:1;"
         offset="0"
         id="stop3" />
    </linearGradient>
    <linearGradient
       id="swatch2"
       inkscape:swatch="solid">
      <stop
         style="stop-color:#3d3d3d;stop-opacity:1;"
         offset="0"
         id="stop2" />
    </linearGradient>
    <linearGradient
       id="swatch1"
       inkscape:swatch="solid">
      <stop
         style="stop-color:#000000;stop-opacity:1;"
         offset="0"
         id="stop1" />
    </linearGradient>
    <linearGradient
       inkscape:collect="always"
       xlink:href="#swatch1"
       id="linearGradient1"
       x1="32"
       y1="320"
       x2="608"
       y2="320"
       gradientUnits="userSpaceOnUse" />
    <linearGradient
       inkscape:collect="always"
       xlink:href="#swatch3"
       id="linearGradient3"
       x1="716"
       y1="360"
       x2="1228"
       y2="360"
       gradientUnits="userSpaceOnUse" />
  </defs>
  <sodipodi:namedview
     id="namedview1"
     pagecolor="#505050"
     bordercolor="#eeeeee"
     borderopacity="1"
     inkscape:showpageshadow="0"
     inkscape:pageopacity="0"
     inkscape:pagecheckerboard="0"
     inkscape:deskcolor="#d1d1d1"
     inkscape:zoom="0.89161746"
     inkscape:cx="130.66142"
     inkscape:cy="291.0441"
     inkscape:window-width="2560"
     inkscape:window-height="1009"
     inkscape:window-x="-8"
     inkscape:window-y="-8"
     inkscape:window-maximized="1"
     inkscape:current-layer="svg1" />
  <!--!Font Awesome Free 7.0.0 by @fontawesome - https://fontawesome.com License - https://fontawesome.com/license/free Copyright 2025 Fonticons, Inc.-->
  <path
     d="m 105.90936,291.47525 c 0,68.84328 55.85398,124.69727 124.69726,124.69727 H 493.8564 c 61.2229,0 110.84202,-49.61912 110.84202,-110.84202 0,-44.68318 -26.41158,-83.2181 -64.51352,-100.71036 5.80189,-11.34398 9.09251,-24.24669 9.09251,-37.84215 0,-45.89552 -37.23599,-83.13151 -83.13151,-83.13151 -15.32737,0 -29.6156,4.15657 -41.91214,11.34398 -20.86947,-39.66065 -62.52182,-66.76499 -110.49563,-66.76499 -68.84328,0 -124.69726,55.85398 -124.69726,124.69726 0,6.92763 0.60617,13.76866 1.64531,20.34991 -49.27274,16.6263 -84.77682,63.30118 -84.77682,118.20261 z"
     id="path1"
     style="fill:url(#linearGradient1);stroke-width:0.865953" />
  <path
     d="m 157.15288,432.88628 c -53,0 -96,-43 -96,-96 0,-42.5 27.6,-78.6 65.9,-91.2 -1.3,-6.7 -1.9,-13.7 -1.9,-20.8 0,-61.9 50.1,-112 112,-112 43.1,0 80.5,24.3 99.2,60 14.7,-17.1 36.5,-28 60.8,-28 44.2,0 80,35.8 80,80 0,5.5 -0.6,10.8 -1.6,16 0.5,0 1.1,0 1.6,0 53,0 96,43 96,96 0,53 -43,96 -96,96 z m 1.6,68.2 c 1.1,-2.5 3.6,-4.2 6.4,-4.2 2.8,0 5.3,1.6 6.4,4.2 l 30.2,68.2 c 2.2,5.1 3.4,10.5 3.4,16 0,21.9 -18.1,39.6 -40,39.6 -21.9,0 -40,-17.7 -40,-39.6 0,-5.5 1.2,-11 3.4,-16 z m 152,0 c 1.1,-2.5 3.6,-4.2 6.4,-4.2 2.8,0 5.3,1.6 6.4,4.2 l 30.2,68.2 c 2.2,5.1 3.4,10.5 3.4,16 0,21.9 -18.1,39.6 -40,39.6 -21.9,0 -40,-17.7 -40,-39.6 0,-5.5 1.2,-11 3.4,-16 z m 121.8,68.2 30.2,-68.2 c 1.1,-2.5 3.6,-4.2 6.4,-4.2 2.8,0 5.3,1.6 6.4,4.2 l 30.2,68.2 c 2.2,5.1 3.4,10.5 3.4,16 0,21.9 -18.1,39.6 -40,39.6 -21.9,0 -40,-17.7 -40,-39.6 0,-5.5 1.2,-11 3.4,-16 z"
     id="path1-5"
     style="fill:url(#linearGradient3)" />
</svg>
