<?xml version="1.0" encoding="UTF-8" standalone="no"?>
<svg
   viewBox="0 0 640 640"
   version="1.1"
   id="svg1"
   sodipodi:docname="pen-solid-full.svg"
   inkscape:version="1.4 (86a8ad7, 2024-10-11)"
   xmlns:inkscape="http://www.inkscape.org/namespaces/inkscape"
   xmlns:sodipodi="http://sodipodi.sourceforge.net/DTD/sodipodi-0.dtd"
   xmlns:xlink="http://www.w3.org/1999/xlink"
   xmlns="http://www.w3.org/2000/svg"
   xmlns:svg="http://www.w3.org/2000/svg">
  <defs
     id="defs1">
    <linearGradient
       id="swatch1"
       inkscape:swatch="solid">
      <stop
         style="stop-color:#20d600;stop-opacity:1;"
         offset="0"
         id="stop1" />
    </linearGradient>
    <linearGradient
       inkscape:collect="always"
       xlink:href="#swatch1"
       id="linearGradient1"
       x1="64.026238"
       y1="320.0297"
       x2="576"
       y2="320.0297"
       gradientUnits="userSpaceOnUse" />
  </defs>
  <sodipodi:namedview
     id="namedview1"
     pagecolor="#505050"
     bordercolor="#eeeeee"
     borderopacity="1"
     inkscape:showpageshadow="0"
     inkscape:pageopacity="0"
     inkscape:pagecheckerboard="0"
     inkscape:deskcolor="#d1d1d1"
     inkscape:zoom="1.2609375"
     inkscape:cx="320"
     inkscape:cy="320"
     inkscape:window-width="2560"
     inkscape:window-height="1009"
     inkscape:window-x="-8"
     inkscape:window-y="-8"
     inkscape:window-maximized="1"
     inkscape:current-layer="svg1" />
  <!--!Font Awesome Free 7.0.0 by @fontawesome - https://fontawesome.com License - https://fontawesome.com/license/free Copyright 2025 Fonticons, Inc.-->
  <path
     d="M416.9 85.2L372 130.1L509.9 268L554.8 223.1C568.4 209.6 576 191.2 576 172C576 152.8 568.4 134.4 554.8 120.9L519.1 85.2C505.6 71.6 487.2 64 468 64C448.8 64 430.4 71.6 416.9 85.2zM338.1 164L122.9 379.1C112.2 389.8 104.4 403.2 100.3 417.8L64.9 545.6C62.6 553.9 64.9 562.9 71.1 569C77.3 575.1 86.2 577.5 94.5 575.2L222.3 539.7C236.9 535.6 250.2 527.9 261 517.1L476 301.9L338.1 164z"
     id="path1"
     style="fill:url(#linearGradient1)" />
</svg>
